# xmcd
#
# Track frame offsets:
#	150
#	46903
#	75422
#	106430
#	133315
#	201608
#
# Disc length: 3004 seconds
#
# Revision: 1
# Processed by: cddbd v1.5.2PL0 Copyright (c) Steve Scherf et al.
# Submitted via: audiograbber 1.83.01
#
DISCID=520bba06
DTITLE=Grateful Dead - 76-10-15 Shrine Auditorium, Los Angeles CA
DYEAR=1900
DGENRE=
TTITLE0=Eyes Of The World
TTITLE1=The Music Never Stopped
TTITLE2=It Must Have Been The Roses
TTITLE3=Samson and Delilah
TTITLE4=He's Gone
TTITLE5=Drums
EXTD=
EXTT0=
EXTT1=
EXTT2=
EXTT3=
EXTT4=
EXTT5=
PLAYORDER=
